<svg width="512" height="512" viewBox="0 0 512 512" fill="none" xmlns="http://www.w3.org/2000/svg">
<rect width="512" height="512"/>
<mask id="path-1-outside-1_3_20" maskUnits="userSpaceOnUse" x="28.8819" y="331.166" width="455" height="124" fill="black">
<rect fill="white" x="28.8819" y="331.166" width="455" height="124"/>
<path fill-rule="evenodd" clip-rule="evenodd" d="M113.376 336.809C65.4418 347.602 31.8819 364.51 31.8819 387.129C31.8819 395.432 36.0837 402.696 45.0869 409.96L46.2853 410.996C47.1859 411.515 47.9359 412.164 48.6858 412.812C49.4357 413.46 50.1856 414.108 51.0863 414.628C51.3849 414.886 51.6845 415.015 51.9841 415.145C52.2856 415.275 52.5871 415.405 52.8876 415.667C62.4933 421.374 75.0983 427.081 90.7036 431.751C120.715 440.572 159.734 447.318 202.958 449.911H205.359C215.563 450.429 226.367 450.95 237.172 451.468H240.775H256.384H271.993H276.195C280.397 451.468 284.598 451.468 288.8 450.95C291.2 450.95 293.601 450.95 296.001 450.432H300.802C303.496 450.174 306.338 450.044 309.18 449.915C312.039 449.785 314.899 449.654 317.609 449.393H318.209C334.417 448.354 350.625 446.279 365.031 444.204C365.63 444.204 366.233 444.204 366.832 443.686C369.778 443.178 372.149 442.666 374.506 442.157L374.507 442.157L374.637 442.129C376.141 441.869 377.798 441.609 379.454 441.348C381.1 441.089 382.746 440.83 384.243 440.572C385.14 440.314 385.887 440.185 386.634 440.055C387.387 439.925 388.139 439.795 389.044 439.533C390.544 439.274 391.895 439.014 393.246 438.754C394.597 438.495 395.947 438.235 397.447 437.976C398.049 437.976 398.499 437.846 398.949 437.717C399.399 437.587 399.848 437.458 400.447 437.458C402.252 436.937 404.207 436.548 406.161 436.158C408.108 435.77 410.054 435.382 411.85 434.865C412.149 434.865 412.45 434.736 412.75 434.606C413.051 434.477 413.352 434.347 413.651 434.347L413.689 434.336C420.878 432.265 428.07 430.193 434.66 427.601C435.259 427.601 435.862 427.083 435.862 427.083C437.362 426.564 438.713 426.045 440.064 425.526C441.415 425.008 442.766 424.489 444.265 423.969C444.265 423.969 444.865 423.969 444.865 423.451C446.056 422.936 447.248 422.421 448.439 421.906C449.648 421.383 450.857 420.861 452.066 420.337C452.669 420.078 453.12 419.817 453.572 419.556C454.02 419.298 454.468 419.039 455.066 418.78C455.667 418.521 456.267 418.132 456.867 417.743C457.467 417.354 458.067 416.964 458.668 416.705C459.569 416.186 460.319 415.667 461.069 415.148L461.069 415.148C461.819 414.629 462.569 414.111 463.469 413.591C464.071 413.332 464.522 412.942 464.973 412.552C465.422 412.163 465.871 411.775 466.469 411.516L467.671 410.477L468.27 409.959C476.674 403.214 480.875 395.432 480.875 387.129C480.882 363.327 443.723 345.849 391.757 335.166C380.445 351.798 366.025 366.289 349.292 377.871C390.983 383.272 425.291 392.152 444.849 403.217C445.463 405.289 444.864 405.807 443.662 405.807C443.063 406.325 441.86 406.846 441.261 406.846C440.66 407.105 440.059 407.365 439.458 407.625C438.859 407.885 438.259 408.145 437.659 408.403H437.059C435.854 408.821 434.648 409.322 433.402 409.839L433.402 409.839C431.548 410.608 429.608 411.414 427.454 412.035C427.155 412.035 427.005 412.164 426.855 412.294C426.704 412.423 426.554 412.553 426.252 412.553C424.45 413.071 422.649 413.592 420.848 414.628C420.586 414.628 420.438 414.628 420.305 414.671C420.133 414.727 419.985 414.855 419.646 415.146L419.645 415.146C416.043 416.185 412.444 417.221 408.242 418.26C407.641 418.26 407.19 418.39 406.74 418.519C406.291 418.649 405.842 418.778 405.243 418.778C401.12 419.798 396.419 420.814 391.705 421.834L391.704 421.834L391.436 421.892C390.538 422.15 389.64 422.28 388.742 422.409C387.839 422.539 386.935 422.67 386.032 422.931L385.86 422.968C383.516 423.474 381.159 423.983 378.227 424.488C376.721 424.748 375.213 425.009 373.706 425.27C372.212 425.529 370.718 425.787 369.225 426.045H368.023C356.017 428.12 343.411 429.677 329.608 430.716H328.405C319.403 431.755 310.999 432.273 301.393 432.791H300.191C298.76 432.791 297.328 432.909 295.83 433.032C294.189 433.167 292.469 433.309 290.586 433.309C288.784 433.309 287.134 433.439 285.483 433.568L285.483 433.568C283.833 433.698 282.182 433.827 280.381 433.827H273.179H255.17H241.363H237.76C233.558 433.827 229.956 433.827 225.754 433.309H223.953C184.935 431.752 148.321 427.602 118.905 420.856C118.605 420.856 118.155 420.726 117.705 420.597L117.705 420.597C117.254 420.467 116.804 420.338 116.505 420.338C115.304 420.079 114.254 419.819 113.203 419.559C112.153 419.3 111.102 419.04 109.902 418.781C109 418.522 108.099 418.262 107.197 418.002C106.297 417.742 105.398 417.483 104.498 417.224C103.897 417.224 103.446 417.094 102.996 416.965C102.546 416.835 102.097 416.706 101.499 416.706C100.298 416.447 99.2479 416.187 98.1975 415.928L98.1973 415.928C97.1469 415.668 96.0965 415.408 94.8962 415.149C88.2058 413.221 82.0297 410.844 76.8563 408.852L76.8483 408.849C76.4559 408.698 76.0693 408.549 75.6887 408.403C75.6887 408.403 75.0895 408.403 75.0895 407.885C74.1861 407.364 73.2826 406.974 72.3791 406.584C71.4813 406.196 70.5834 405.809 69.6856 405.292C68.4834 404.774 67.2851 404.253 66.6859 403.735C66.3868 403.735 66.237 403.606 66.0869 403.477C65.9364 403.347 65.7857 403.217 65.4838 403.217C84.2085 392.625 116.449 384.034 155.743 378.582C139.126 367.263 124.748 353.092 113.376 336.809Z"/>
</mask>
<path fill-rule="evenodd" clip-rule="evenodd" d="M113.376 336.809C65.4418 347.602 31.8819 364.51 31.8819 387.129C31.8819 395.432 36.0837 402.696 45.0869 409.96L46.2853 410.996C47.1859 411.515 47.9359 412.164 48.6858 412.812C49.4357 413.46 50.1856 414.108 51.0863 414.628C51.3849 414.886 51.6845 415.015 51.9841 415.145C52.2856 415.275 52.5871 415.405 52.8876 415.667C62.4933 421.374 75.0983 427.081 90.7036 431.751C120.715 440.572 159.734 447.318 202.958 449.911H205.359C215.563 450.429 226.367 450.95 237.172 451.468H240.775H256.384H271.993H276.195C280.397 451.468 284.598 451.468 288.8 450.95C291.2 450.95 293.601 450.95 296.001 450.432H300.802C303.496 450.174 306.338 450.044 309.18 449.915C312.039 449.785 314.899 449.654 317.609 449.393H318.209C334.417 448.354 350.625 446.279 365.031 444.204C365.63 444.204 366.233 444.204 366.832 443.686C369.778 443.178 372.149 442.666 374.506 442.157L374.507 442.157L374.637 442.129C376.141 441.869 377.798 441.609 379.454 441.348C381.1 441.089 382.746 440.83 384.243 440.572C385.14 440.314 385.887 440.185 386.634 440.055C387.387 439.925 388.139 439.795 389.044 439.533C390.544 439.274 391.895 439.014 393.246 438.754C394.597 438.495 395.947 438.235 397.447 437.976C398.049 437.976 398.499 437.846 398.949 437.717C399.399 437.587 399.848 437.458 400.447 437.458C402.252 436.937 404.207 436.548 406.161 436.158C408.108 435.77 410.054 435.382 411.85 434.865C412.149 434.865 412.45 434.736 412.75 434.606C413.051 434.477 413.352 434.347 413.651 434.347L413.689 434.336C420.878 432.265 428.07 430.193 434.66 427.601C435.259 427.601 435.862 427.083 435.862 427.083C437.362 426.564 438.713 426.045 440.064 425.526C441.415 425.008 442.766 424.489 444.265 423.969C444.265 423.969 444.865 423.969 444.865 423.451C446.056 422.936 447.248 422.421 448.439 421.906C449.648 421.383 450.857 420.861 452.066 420.337C452.669 420.078 453.12 419.817 453.572 419.556C454.02 419.298 454.468 419.039 455.066 418.78C455.667 418.521 456.267 418.132 456.867 417.743C457.467 417.354 458.067 416.964 458.668 416.705C459.569 416.186 460.319 415.667 461.069 415.148L461.069 415.148C461.819 414.629 462.569 414.111 463.469 413.591C464.071 413.332 464.522 412.942 464.973 412.552C465.422 412.163 465.871 411.775 466.469 411.516L467.671 410.477L468.27 409.959C476.674 403.214 480.875 395.432 480.875 387.129C480.882 363.327 443.723 345.849 391.757 335.166C380.445 351.798 366.025 366.289 349.292 377.871C390.983 383.272 425.291 392.152 444.849 403.217C445.463 405.289 444.864 405.807 443.662 405.807C443.063 406.325 441.86 406.846 441.261 406.846C440.66 407.105 440.059 407.365 439.458 407.625C438.859 407.885 438.259 408.145 437.659 408.403H437.059C435.854 408.821 434.648 409.322 433.402 409.839L433.402 409.839C431.548 410.608 429.608 411.414 427.454 412.035C427.155 412.035 427.005 412.164 426.855 412.294C426.704 412.423 426.554 412.553 426.252 412.553C424.45 413.071 422.649 413.592 420.848 414.628C420.586 414.628 420.438 414.628 420.305 414.671C420.133 414.727 419.985 414.855 419.646 415.146L419.645 415.146C416.043 416.185 412.444 417.221 408.242 418.26C407.641 418.26 407.19 418.39 406.74 418.519C406.291 418.649 405.842 418.778 405.243 418.778C401.12 419.798 396.419 420.814 391.705 421.834L391.704 421.834L391.436 421.892C390.538 422.15 389.64 422.28 388.742 422.409C387.839 422.539 386.935 422.67 386.032 422.931L385.86 422.968C383.516 423.474 381.159 423.983 378.227 424.488C376.721 424.748 375.213 425.009 373.706 425.27C372.212 425.529 370.718 425.787 369.225 426.045H368.023C356.017 428.12 343.411 429.677 329.608 430.716H328.405C319.403 431.755 310.999 432.273 301.393 432.791H300.191C298.76 432.791 297.328 432.909 295.83 433.032C294.189 433.167 292.469 433.309 290.586 433.309C288.784 433.309 287.134 433.439 285.483 433.568L285.483 433.568C283.833 433.698 282.182 433.827 280.381 433.827H273.179H255.17H241.363H237.76C233.558 433.827 229.956 433.827 225.754 433.309H223.953C184.935 431.752 148.321 427.602 118.905 420.856C118.605 420.856 118.155 420.726 117.705 420.597L117.705 420.597C117.254 420.467 116.804 420.338 116.505 420.338C115.304 420.079 114.254 419.819 113.203 419.559C112.153 419.3 111.102 419.04 109.902 418.781C109 418.522 108.099 418.262 107.197 418.002C106.297 417.742 105.398 417.483 104.498 417.224C103.897 417.224 103.446 417.094 102.996 416.965C102.546 416.835 102.097 416.706 101.499 416.706C100.298 416.447 99.2479 416.187 98.1975 415.928L98.1973 415.928C97.1469 415.668 96.0965 415.408 94.8962 415.149C88.2058 413.221 82.0297 410.844 76.8563 408.852L76.8483 408.849C76.4559 408.698 76.0693 408.549 75.6887 408.403C75.6887 408.403 75.0895 408.403 75.0895 407.885C74.1861 407.364 73.2826 406.974 72.3791 406.584C71.4813 406.196 70.5834 405.809 69.6856 405.292C68.4834 404.774 67.2851 404.253 66.6859 403.735C66.3868 403.735 66.237 403.606 66.0869 403.477C65.9364 403.347 65.7857 403.217 65.4838 403.217C84.2085 392.625 116.449 384.034 155.743 378.582C139.126 367.263 124.748 353.092 113.376 336.809Z" fill="#78350F"/>
<path d="M113.376 336.809L115.835 335.091L114.682 333.44L112.717 333.882L113.376 336.809ZM45.0869 409.96L47.0487 407.69L47.0103 407.657L46.9707 407.625L45.0869 409.96ZM46.2853 410.996L44.3235 413.265L44.5392 413.452L44.7863 413.594L46.2853 410.996ZM48.6858 412.812L46.7239 415.081L46.724 415.081L48.6858 412.812ZM51.0863 414.628L53.0481 412.358L52.8324 412.172L52.5853 412.029L51.0863 414.628ZM51.9841 415.145L50.7939 417.899L50.794 417.899L51.9841 415.145ZM52.8876 415.667L50.9187 417.93L51.1228 418.108L51.3553 418.246L52.8876 415.667ZM90.7036 431.751L89.8434 434.626L89.8505 434.628L89.8576 434.63L90.7036 431.751ZM202.958 449.911L202.778 452.905L202.868 452.911H202.958V449.911ZM205.359 449.911L205.511 446.915L205.435 446.911H205.359V449.911ZM237.172 451.468L237.028 454.464L237.1 454.468H237.172V451.468ZM288.8 450.95V447.95H288.616L288.433 447.972L288.8 450.95ZM296.001 450.432V447.432H295.681L295.368 447.5L296.001 450.432ZM300.802 450.432V453.432H300.946L301.088 453.418L300.802 450.432ZM309.18 449.915L309.317 452.912L309.317 452.912L309.18 449.915ZM317.609 449.393V446.393H317.465L317.321 446.407L317.609 449.393ZM318.209 449.393V452.393H318.305L318.401 452.387L318.209 449.393ZM365.031 444.204V441.204H364.816L364.603 441.235L365.031 444.204ZM366.832 443.686L366.322 440.73L365.501 440.872L364.871 441.416L366.832 443.686ZM374.506 442.157L373.885 439.222L373.873 439.225L374.506 442.157ZM374.507 442.157L375.128 445.092L375.14 445.09L374.507 442.157ZM374.637 442.129L374.126 439.173L374.065 439.183L374.004 439.197L374.637 442.129ZM379.454 441.348L379.92 444.312L379.92 444.312L379.454 441.348ZM384.243 440.572L384.752 443.528L384.914 443.501L385.072 443.455L384.243 440.572ZM386.634 440.055L386.122 437.099L386.122 437.099L386.634 440.055ZM389.044 439.533L388.533 436.577L388.369 436.605L388.21 436.651L389.044 439.533ZM393.246 438.754L392.679 435.808L392.679 435.808L393.246 438.754ZM397.447 437.976V434.976H397.19L396.937 435.02L397.447 437.976ZM398.949 437.717L399.779 440.6L399.779 440.6L398.949 437.717ZM400.447 437.458V440.458H400.871L401.278 440.34L400.447 437.458ZM406.161 436.158L405.574 433.216L405.574 433.216L406.161 436.158ZM411.85 434.865V431.865H411.427L411.02 431.982L411.85 434.865ZM412.75 434.606L413.937 437.361L413.937 437.361L412.75 434.606ZM413.651 434.347V437.347H414.075L414.483 437.23L413.651 434.347ZM413.689 434.336L412.859 431.453L412.858 431.454L413.689 434.336ZM434.66 427.601V424.601H434.091L433.562 424.809L434.66 427.601ZM435.862 427.083L434.88 424.249L434.34 424.436L433.907 424.808L435.862 427.083ZM440.064 425.526L441.139 428.327L441.139 428.327L440.064 425.526ZM444.265 423.969V420.969H443.761L443.283 421.135L444.265 423.969ZM444.865 423.451L443.673 420.698L441.865 421.481V423.451H444.865ZM448.439 421.906L449.63 424.659L449.63 424.659L448.439 421.906ZM452.066 420.337L450.879 417.582L450.874 417.584L452.066 420.337ZM453.572 419.556L455.072 422.154L455.072 422.154L453.572 419.556ZM455.066 418.78L453.879 416.025L453.876 416.027L455.066 418.78ZM458.668 416.705L459.855 419.461L460.016 419.391L460.167 419.304L458.668 416.705ZM461.069 415.148L462.776 417.616L462.782 417.611L462.789 417.606L461.069 415.148ZM461.069 415.148L459.363 412.681L459.356 412.686L459.349 412.69L461.069 415.148ZM463.469 413.591L462.282 410.836L462.122 410.905L461.97 410.993L463.469 413.591ZM464.973 412.552L466.936 414.821L466.936 414.821L464.973 412.552ZM466.469 411.516L467.659 414.27L468.082 414.087L468.431 413.786L466.469 411.516ZM467.671 410.477L465.709 408.208L465.709 408.208L467.671 410.477ZM468.27 409.959L466.392 407.62L466.35 407.654L466.309 407.69L468.27 409.959ZM480.875 387.129L477.875 387.128V387.129H480.875ZM391.757 335.166L392.361 332.227L390.401 331.824L389.276 333.478L391.757 335.166ZM349.292 377.871L347.585 375.404L341.17 379.844L348.907 380.846L349.292 377.871ZM444.849 403.217L447.725 402.365L447.381 401.203L446.326 400.606L444.849 403.217ZM443.662 405.807V402.807H442.545L441.7 403.538L443.662 405.807ZM441.261 406.846V403.846H440.642L440.074 404.091L441.261 406.846ZM439.458 407.625L440.65 410.379L440.65 410.379L439.458 407.625ZM437.659 408.403V411.403H438.277L438.846 411.159L437.659 408.403ZM437.059 408.403V405.403H436.554L436.077 405.569L437.059 408.403ZM433.402 409.839L432.252 407.068L432.236 407.075L432.22 407.081L433.402 409.839ZM433.402 409.839L434.552 412.61L434.568 412.603L434.583 412.596L433.402 409.839ZM427.454 412.035V415.035H427.878L428.285 414.918L427.454 412.035ZM426.855 412.294L424.896 410.021L424.896 410.021L426.855 412.294ZM426.252 412.553V409.553H425.829L425.423 409.67L426.252 412.553ZM420.848 414.628V417.628H421.649L422.343 417.229L420.848 414.628ZM420.305 414.671L419.379 411.818L419.378 411.818L420.305 414.671ZM419.646 415.146L421.446 417.546L421.525 417.486L421.6 417.422L419.646 415.146ZM419.645 415.146L420.477 418.029L421.005 417.876L421.445 417.546L419.645 415.146ZM408.242 418.26V421.26H408.608L408.963 421.172L408.242 418.26ZM406.74 418.519L405.91 415.636L405.91 415.636L406.74 418.519ZM405.243 418.778V415.778H404.877L404.523 415.866L405.243 418.778ZM391.705 421.834L392.334 424.767L392.339 424.766L391.705 421.834ZM391.704 421.834L391.075 418.901L391.07 418.902L391.704 421.834ZM391.436 421.892L390.802 418.96L390.703 418.981L390.607 419.009L391.436 421.892ZM388.742 422.409L389.171 425.378L389.171 425.378L388.742 422.409ZM386.032 422.931L386.664 425.864L386.766 425.842L386.866 425.813L386.032 422.931ZM385.86 422.968L385.227 420.036L385.227 420.036L385.86 422.968ZM378.227 424.488L377.718 421.532L377.717 421.532L378.227 424.488ZM373.706 425.27L374.218 428.226L374.218 428.226L373.706 425.27ZM369.225 426.045V429.045H369.482L369.735 429.001L369.225 426.045ZM368.023 426.045V423.045H367.765L367.512 423.089L368.023 426.045ZM329.608 430.716V433.716H329.72L329.833 433.708L329.608 430.716ZM328.405 430.716V427.716H328.233L328.061 427.736L328.405 430.716ZM301.393 432.791V435.791H301.474L301.555 435.787L301.393 432.791ZM295.83 433.032L296.076 436.022L296.076 436.022L295.83 433.032ZM285.483 433.568L285.249 430.577L285.217 430.58L285.185 430.583L285.483 433.568ZM285.483 433.568L285.718 436.559L285.75 436.556L285.782 436.553L285.483 433.568ZM225.754 433.309L226.121 430.332L225.939 430.309H225.754V433.309ZM223.953 433.309L223.833 436.307L223.893 436.309H223.953V433.309ZM118.905 420.856L119.576 417.932L119.245 417.856H118.905V420.856ZM117.705 420.597L116.591 423.382L116.731 423.438L116.876 423.48L117.705 420.597ZM117.705 420.597L118.819 417.811L118.679 417.755L118.534 417.714L117.705 420.597ZM116.505 420.338L115.872 423.271L116.185 423.338H116.505V420.338ZM113.203 419.559L113.923 416.647L113.923 416.647L113.203 419.559ZM109.902 418.781L109.073 421.664L109.171 421.692L109.269 421.714L109.902 418.781ZM107.197 418.002L108.028 415.119L108.028 415.119L107.197 418.002ZM104.498 417.224L105.327 414.341L104.921 414.224H104.498V417.224ZM102.996 416.965L102.166 419.848L102.166 419.848L102.996 416.965ZM101.499 416.706L100.866 419.639L101.179 419.706H101.499V416.706ZM98.1975 415.928L97.3733 418.812L97.4251 418.827L97.4773 418.84L98.1975 415.928ZM98.1973 415.928L99.0215 413.043L98.9698 413.028L98.9175 413.015L98.1973 415.928ZM94.8962 415.149L94.0656 418.032L94.1637 418.06L94.2635 418.082L94.8962 415.149ZM76.8563 408.852L75.7781 411.652L75.7786 411.652L76.8563 408.852ZM76.8483 408.849L77.9266 406.05L77.9261 406.05L76.8483 408.849ZM75.6887 408.403L76.7646 405.603L76.2452 405.403H75.6887V408.403ZM75.0895 407.885H78.0895V406.152L76.5886 405.287L75.0895 407.885ZM72.3791 406.584L71.19 409.338L71.19 409.338L72.3791 406.584ZM69.6856 405.292L71.1811 402.692L71.0313 402.606L70.8726 402.537L69.6856 405.292ZM66.6859 403.735L68.6477 401.466L67.8027 400.735H66.6859V403.735ZM66.0869 403.477L64.1286 405.75L64.1287 405.75L66.0869 403.477ZM65.4838 403.217L64.0066 400.606L54.0879 406.217H65.4838V403.217ZM155.743 378.582L156.155 381.553L163.864 380.483L157.432 376.102L155.743 378.582ZM112.717 333.882C88.6218 339.307 67.9063 346.316 53.14 354.944C38.497 363.5 28.8819 374.164 28.8819 387.129H34.8819C34.8819 377.476 42.0467 368.375 56.1671 360.124C70.1642 351.945 90.1955 345.103 114.035 339.735L112.717 333.882ZM28.8819 387.129C28.8819 396.658 33.7866 404.697 43.2031 412.295L46.9707 407.625C38.3808 400.695 34.8819 394.206 34.8819 387.129H28.8819ZM43.1251 412.23L44.3235 413.265L48.2471 408.726L47.0487 407.69L43.1251 412.23ZM44.7863 413.594C45.4017 413.949 45.9449 414.408 46.7239 415.081L50.6476 410.542C49.9268 409.919 48.9702 409.081 47.7843 408.397L44.7863 413.594ZM46.724 415.081C47.4448 415.704 48.4014 416.542 49.5873 417.226L52.5853 412.029C51.9699 411.674 51.4266 411.215 50.6476 410.542L46.724 415.081ZM49.1245 416.897C49.8114 417.491 50.5077 417.775 50.7939 417.899L53.1743 412.391C53.1356 412.374 53.1059 412.361 53.0775 412.349C53.05 412.337 53.0288 412.327 53.0112 412.319C52.976 412.303 52.9622 412.296 52.9603 412.295C52.9595 412.294 52.9706 412.3 52.9888 412.313C53.0074 412.325 53.0279 412.341 53.0481 412.358L49.1245 416.897ZM50.794 417.899C50.8329 417.915 50.8627 417.928 50.8913 417.941C50.9188 417.953 50.9401 417.963 50.9577 417.971C50.9929 417.987 51.0064 417.994 51.008 417.995C51.0085 417.995 50.997 417.989 50.9785 417.976C50.9596 417.964 50.9389 417.948 50.9187 417.93L54.8565 413.403C54.165 412.802 53.4631 412.516 53.1743 412.391L50.794 417.899ZM51.3553 418.246C61.1907 424.089 74.0245 429.891 89.8434 434.626L91.5637 428.877C76.1721 424.271 63.7959 418.658 54.4199 413.088L51.3553 418.246ZM89.8576 434.63C120.122 443.525 159.369 450.302 202.778 452.905L203.138 446.916C160.099 444.335 121.308 437.62 91.5495 428.873L89.8576 434.63ZM202.958 452.911H205.359V446.911H202.958V452.911ZM205.206 452.907C215.416 453.425 226.224 453.947 237.028 454.464L237.316 448.471C226.511 447.953 215.711 447.432 205.511 446.915L205.206 452.907ZM237.172 454.468H240.775V448.468H237.172V454.468ZM240.775 454.468H256.384V448.468H240.775V454.468ZM256.384 454.468H271.993V448.468H256.384V454.468ZM271.993 454.468H276.195V448.468H271.993V454.468ZM276.195 454.468C280.367 454.468 284.752 454.472 289.167 453.927L288.433 447.972C284.444 448.464 280.427 448.468 276.195 448.468V454.468ZM288.8 453.95C291.151 453.95 293.87 453.961 296.634 453.365L295.368 447.5C293.331 447.939 291.25 447.95 288.8 447.95V453.95ZM296.001 453.432H300.802V447.432H296.001V453.432ZM301.088 453.418C303.694 453.169 306.459 453.042 309.317 452.912L309.044 446.918C306.217 447.047 303.298 447.179 300.516 447.446L301.088 453.418ZM309.317 452.912C312.16 452.782 315.098 452.649 317.897 452.379L317.321 446.407C314.7 446.66 311.918 446.787 309.044 446.918L309.317 452.912ZM317.609 452.393H318.209V446.393H317.609V452.393ZM318.401 452.387C334.726 451.34 351.025 449.252 365.459 447.173L364.603 441.235C350.225 443.306 334.108 445.368 318.017 446.399L318.401 452.387ZM365.031 447.204C365.618 447.204 367.276 447.268 368.794 445.956L364.871 441.416C364.913 441.38 364.982 441.331 365.073 441.286C365.164 441.242 365.245 441.218 365.3 441.206C365.35 441.196 365.365 441.198 365.32 441.2C365.297 441.201 365.265 441.203 365.216 441.203C365.164 441.204 365.109 441.204 365.031 441.204V447.204ZM367.343 446.642C370.356 446.122 372.782 445.598 375.139 445.09L373.873 439.225C371.516 439.733 369.199 440.233 366.322 440.73L367.343 446.642ZM375.127 445.092L375.128 445.092L373.886 439.222L373.885 439.222L375.127 445.092ZM375.14 445.09L375.27 445.062L374.004 439.197L373.874 439.225L375.14 445.09ZM375.147 445.085C376.626 444.83 378.259 444.573 379.92 444.312L378.987 438.385C377.337 438.644 375.657 438.908 374.126 439.173L375.147 445.085ZM379.92 444.312C381.561 444.053 383.23 443.791 384.752 443.528L383.733 437.616C382.262 437.869 380.638 438.125 378.987 438.385L379.92 444.312ZM385.072 443.455C385.795 443.247 386.398 443.141 387.146 443.011L386.122 437.099C385.377 437.228 384.484 437.381 383.414 437.689L385.072 443.455ZM387.146 443.011C387.898 442.881 388.797 442.727 389.877 442.415L388.21 436.651C387.481 436.862 386.876 436.969 386.122 437.099L387.146 443.011ZM389.554 442.489C391.086 442.225 392.464 441.96 393.812 441.7L392.679 435.808C391.326 436.069 390.001 436.323 388.533 436.577L389.554 442.489ZM393.812 441.7C395.166 441.44 396.49 441.186 397.958 440.932L396.937 435.02C395.405 435.284 394.028 435.549 392.679 435.808L393.812 441.7ZM397.447 440.976C398.512 440.976 399.322 440.731 399.779 440.6L398.12 434.834C397.676 434.961 397.586 434.976 397.447 434.976V440.976ZM399.779 440.6C400.223 440.472 400.311 440.458 400.447 440.458V434.458C399.385 434.458 398.575 434.703 398.12 434.834L399.779 440.6ZM401.278 440.34C402.94 439.861 404.767 439.495 406.747 439.1L405.574 433.216C403.646 433.6 401.563 434.014 399.615 434.575L401.278 440.34ZM406.747 439.1C408.668 438.717 410.741 438.306 412.68 437.748L411.02 431.982C409.366 432.458 407.547 432.823 405.574 433.216L406.747 439.1ZM411.85 437.865C412.885 437.865 413.78 437.429 413.937 437.361L411.563 431.851C411.483 431.886 411.439 431.904 411.401 431.92C411.366 431.934 411.362 431.935 411.377 431.93C411.392 431.925 411.442 431.909 411.518 431.895C411.595 431.88 411.709 431.865 411.85 431.865V437.865ZM413.937 437.361C414.018 437.327 414.062 437.308 414.1 437.293C414.135 437.279 414.139 437.278 414.124 437.283C414.109 437.288 414.059 437.303 413.983 437.317C413.905 437.332 413.792 437.347 413.651 437.347V431.347C412.616 431.347 411.721 431.783 411.563 431.851L413.937 437.361ZM414.483 437.23L414.521 437.219L412.858 431.454L412.82 431.465L414.483 437.23ZM414.52 437.219C421.68 435.156 429.012 433.046 435.758 430.393L433.562 424.809C427.127 427.34 420.076 429.374 412.859 431.453L414.52 437.219ZM434.66 430.601C435.74 430.601 436.59 430.167 436.979 429.944C437.212 429.811 437.402 429.679 437.538 429.579C437.607 429.528 437.665 429.483 437.712 429.446C437.735 429.427 437.755 429.411 437.773 429.396C437.782 429.389 437.79 429.382 437.797 429.376C437.801 429.373 437.804 429.37 437.807 429.367C437.809 429.366 437.811 429.364 437.812 429.363C437.813 429.362 437.814 429.362 437.814 429.361C437.815 429.361 437.815 429.36 437.816 429.36C437.816 429.36 437.817 429.359 435.862 427.083C433.907 424.808 433.908 424.807 433.908 424.807C433.908 424.807 433.909 424.806 433.909 424.806C433.91 424.805 433.911 424.805 433.911 424.804C433.913 424.803 433.914 424.802 433.915 424.801C433.918 424.798 433.921 424.796 433.923 424.794C433.928 424.79 433.933 424.786 433.937 424.782C433.945 424.775 433.952 424.77 433.958 424.765C433.969 424.757 433.975 424.752 433.979 424.749C433.982 424.747 433.985 424.745 433.992 424.74C433.996 424.738 434.039 424.713 434.122 424.684C434.2 424.658 434.388 424.601 434.66 424.601V430.601ZM436.844 429.918C438.397 429.38 439.793 428.844 441.139 428.327L438.989 422.726C437.633 423.246 436.326 423.748 434.88 424.249L436.844 429.918ZM441.139 428.327C442.495 427.806 443.801 427.305 445.247 426.804L443.283 421.135C441.73 421.673 440.335 422.209 438.989 422.726L441.139 428.327ZM444.265 423.969C444.265 426.969 444.267 426.969 444.268 426.969C444.268 426.969 444.27 426.969 444.271 426.969C444.272 426.969 444.274 426.969 444.276 426.969C444.279 426.969 444.283 426.969 444.286 426.969C444.294 426.969 444.301 426.969 444.309 426.969C444.324 426.969 444.341 426.968 444.359 426.968C444.394 426.967 444.433 426.965 444.476 426.963C444.561 426.957 444.667 426.948 444.787 426.931C445.011 426.898 445.363 426.828 445.755 426.658C446.148 426.489 446.694 426.17 447.146 425.583C447.631 424.955 447.865 424.204 447.865 423.451H441.865C441.865 422.958 442.023 422.401 442.395 421.919C442.736 421.477 443.132 421.256 443.375 421.151C443.618 421.046 443.819 421.008 443.931 420.992C443.995 420.983 444.054 420.977 444.106 420.974C444.133 420.972 444.16 420.971 444.186 420.97C444.199 420.97 444.212 420.97 444.225 420.97C444.232 420.97 444.239 420.969 444.245 420.969C444.249 420.969 444.252 420.969 444.255 420.969C444.257 420.969 444.259 420.969 444.26 420.969C444.261 420.969 444.262 420.969 444.263 420.969C444.264 420.969 444.265 420.969 444.265 423.969ZM446.056 426.205C447.247 425.689 448.438 425.174 449.63 424.659L447.249 419.152C446.058 419.667 444.865 420.182 443.673 420.698L446.056 426.205ZM449.63 424.659C450.838 424.137 452.048 423.614 453.258 423.091L450.874 417.584C449.666 418.107 448.458 418.629 447.249 419.152L449.63 424.659ZM453.253 423.093C454.033 422.756 454.619 422.416 455.072 422.154L452.071 416.959C451.621 417.218 451.305 417.399 450.879 417.582L453.253 423.093ZM455.072 422.154C455.519 421.896 455.834 421.716 456.256 421.534L453.876 416.027C453.103 416.361 452.521 416.699 452.071 416.959L455.072 422.154ZM456.253 421.536C457.13 421.157 457.95 420.617 458.5 420.26L455.234 415.226C454.584 415.648 454.203 415.885 453.879 416.025L456.253 421.536ZM458.5 420.26C459.15 419.838 459.531 419.6 459.855 419.461L457.481 413.95C456.604 414.328 455.784 414.869 455.234 415.226L458.5 420.26ZM460.167 419.304C461.188 418.715 462.032 418.13 462.776 417.616L459.362 412.681C458.606 413.205 457.95 413.657 457.169 414.107L460.167 419.304ZM462.789 417.606L462.79 417.606L459.349 412.69L459.348 412.691L462.789 417.606ZM462.776 417.615C463.533 417.092 464.188 416.64 464.968 416.19L461.97 410.993C460.949 411.582 460.106 412.167 459.363 412.681L462.776 417.615ZM464.656 416.347C465.744 415.878 466.522 415.179 466.936 414.821L463.01 410.284C462.77 410.491 462.636 410.605 462.507 410.699C462.394 410.782 462.327 410.817 462.282 410.836L464.656 416.347ZM466.936 414.821C467.175 414.614 467.309 414.5 467.437 414.406C467.549 414.324 467.616 414.289 467.659 414.27L465.279 408.763C464.196 409.231 463.422 409.927 463.01 410.284L466.936 414.821ZM468.431 413.786L469.633 412.747L465.709 408.208L464.507 409.247L468.431 413.786ZM469.633 412.747L470.232 412.229L466.309 407.69L465.709 408.208L469.633 412.747ZM470.148 412.299C479.061 405.145 483.875 396.571 483.875 387.129H477.875C477.875 394.293 474.287 401.282 466.392 407.62L470.148 412.299ZM483.875 387.13C483.879 373.491 473.253 362.399 457.251 353.599C441.085 344.709 418.469 337.594 392.361 332.227L391.153 338.104C417.011 343.42 438.957 350.386 454.36 358.856C469.927 367.417 477.878 376.965 477.875 387.128L483.875 387.13ZM389.276 333.478C378.175 349.801 364.018 364.029 347.585 375.404L350.999 380.338C368.031 368.549 382.715 353.795 394.238 336.853L389.276 333.478ZM348.907 380.846C390.516 386.236 424.341 395.062 443.372 405.829L446.326 400.606C426.241 389.243 391.451 380.307 349.677 374.896L348.907 380.846ZM441.973 404.07C442.086 404.452 442.094 404.604 442.093 404.597C442.093 404.589 442.079 404.24 442.336 403.794C442.626 403.289 443.06 403.008 443.387 402.885C443.645 402.788 443.786 402.807 443.662 402.807V408.807C444.466 408.807 446.454 408.669 447.537 406.785C448.438 405.218 448.048 403.453 447.725 402.365L441.973 404.07ZM441.7 403.538C441.724 403.517 441.694 403.545 441.594 403.604C441.501 403.659 441.388 403.717 441.269 403.768C441.148 403.821 441.055 403.851 441.007 403.865C440.984 403.871 440.988 403.869 441.018 403.864C441.042 403.86 441.129 403.846 441.261 403.846V409.846C442.195 409.846 443.109 409.51 443.654 409.274C444.271 409.007 445.016 408.602 445.624 408.077L441.7 403.538ZM440.074 404.091C439.47 404.351 438.867 404.612 438.267 404.872L440.65 410.379C441.251 410.118 441.849 409.859 442.448 409.601L440.074 404.091ZM438.267 404.872C437.667 405.132 437.069 405.391 436.472 405.648L438.846 411.159C439.449 410.899 440.051 410.638 440.65 410.379L438.267 404.872ZM437.659 405.403H437.059V411.403H437.659V405.403ZM436.077 405.569C434.772 406.021 433.481 406.558 432.252 407.068L434.552 412.609C435.814 412.086 436.936 411.621 438.041 411.238L436.077 405.569ZM432.22 407.081L432.22 407.082L434.583 412.596L434.584 412.596L432.22 407.081ZM432.251 407.068C430.381 407.845 428.59 408.585 426.622 409.153L428.285 414.918C430.626 414.243 432.715 413.372 434.552 412.61L432.251 407.068ZM427.454 409.035C426.002 409.035 425.133 409.817 424.896 410.021L428.813 414.566C428.922 414.473 428.743 414.643 428.477 414.78C428.138 414.956 427.777 415.035 427.454 415.035V409.035ZM424.896 410.021C424.788 410.114 424.966 409.944 425.233 409.807C425.572 409.632 425.932 409.553 426.252 409.553V415.553C427.704 415.553 428.573 414.773 428.813 414.566L424.896 410.021ZM425.423 409.67C423.65 410.18 421.512 410.785 419.352 412.027L422.343 417.229C423.786 416.399 425.25 415.963 427.081 415.436L425.423 409.67ZM420.848 411.628C420.766 411.628 420.066 411.595 419.379 411.818L421.231 417.525C420.976 417.608 420.776 417.624 420.716 417.628C420.689 417.629 420.681 417.629 420.709 417.629C420.739 417.628 420.777 417.628 420.848 417.628V411.628ZM419.378 411.818C418.863 411.985 418.485 412.236 418.245 412.415C418.041 412.567 417.827 412.753 417.691 412.87L421.6 417.422C421.69 417.345 421.747 417.296 421.793 417.257C421.839 417.219 421.846 417.214 421.831 417.226C421.814 417.238 421.749 417.286 421.646 417.344C421.535 417.406 421.395 417.472 421.231 417.525L419.378 411.818ZM417.846 412.746L417.845 412.746L421.445 417.546L421.446 417.546L417.846 412.746ZM418.814 412.264C415.21 413.303 411.661 414.324 407.522 415.348L408.963 421.172C413.227 420.118 416.876 419.067 420.477 418.029L418.814 412.264ZM408.242 415.26C407.178 415.26 406.367 415.505 405.91 415.636L407.57 421.402C408.013 421.275 408.104 421.26 408.242 421.26V415.26ZM405.91 415.636C405.467 415.764 405.378 415.778 405.243 415.778V421.778C406.305 421.778 407.114 421.533 407.57 421.402L405.91 415.636ZM404.523 415.866C400.451 416.873 395.796 417.88 391.071 418.902L392.339 424.766C397.042 423.749 401.788 422.723 405.963 421.69L404.523 415.866ZM391.077 418.9L391.075 418.901L392.332 424.767L392.334 424.767L391.077 418.9ZM391.07 418.902L390.802 418.96L392.07 424.824L392.338 424.766L391.07 418.902ZM390.607 419.009C389.938 419.201 389.242 419.306 388.314 419.44L389.171 425.378C390.039 425.253 391.138 425.099 392.265 424.775L390.607 419.009ZM388.314 419.44C387.441 419.566 386.333 419.721 385.198 420.049L386.866 425.813C387.538 425.619 388.237 425.513 389.171 425.378L388.314 419.44ZM385.399 419.999L385.227 420.036L386.492 425.901L386.664 425.864L385.399 419.999ZM385.227 420.036C382.883 420.541 380.581 421.038 377.718 421.532L378.737 427.444C381.737 426.927 384.149 426.406 386.492 425.901L385.227 420.036ZM377.717 421.532C376.21 421.792 374.702 422.053 373.194 422.314L374.218 428.226C375.725 427.965 377.232 427.704 378.738 427.444L377.717 421.532ZM373.194 422.314C371.7 422.573 370.207 422.831 368.714 423.089L369.735 429.001C371.229 428.743 372.724 428.485 374.218 428.226L373.194 422.314ZM369.225 423.045H368.023V429.045H369.225V423.045ZM367.512 423.089C355.607 425.146 343.097 426.692 329.382 427.725L329.833 433.708C343.725 432.662 356.427 431.094 368.533 429.001L367.512 423.089ZM329.608 427.716H328.405V433.716H329.608V427.716ZM328.061 427.736C319.156 428.764 310.83 429.278 301.232 429.795L301.555 435.787C311.168 435.268 319.649 434.747 328.749 433.696L328.061 427.736ZM301.393 429.791H300.191V435.791H301.393V429.791ZM300.191 429.791C298.616 429.791 297.059 429.921 295.584 430.042L296.076 436.022C297.596 435.897 298.904 435.791 300.191 435.791V429.791ZM295.584 430.042C293.932 430.178 292.329 430.309 290.586 430.309V436.309C292.61 436.309 294.446 436.156 296.076 436.022L295.584 430.042ZM290.586 430.309C288.65 430.309 286.887 430.449 285.249 430.577L285.718 436.559C287.381 436.428 288.919 436.309 290.586 436.309V430.309ZM285.185 430.583L285.185 430.583L285.782 436.553L285.782 436.553L285.185 430.583ZM285.248 430.577C283.586 430.708 282.047 430.827 280.381 430.827V436.827C282.316 436.827 284.079 436.687 285.718 436.559L285.248 430.577ZM280.381 430.827H273.179V436.827H280.381V430.827ZM273.179 430.827H255.17V436.827H273.179V430.827ZM255.17 430.827H241.363V436.827H255.17V430.827ZM241.363 430.827H237.76V436.827H241.363V430.827ZM237.76 430.827C233.542 430.827 230.115 430.824 226.121 430.332L225.387 436.287C229.797 436.83 233.574 436.827 237.76 436.827V430.827ZM225.754 430.309H223.953V436.309H225.754V430.309ZM224.073 430.311C185.171 428.759 148.754 424.623 119.576 417.932L118.234 423.78C147.889 430.581 184.7 434.745 223.833 436.307L224.073 430.311ZM118.905 417.856C119.033 417.856 119.111 417.869 119.114 417.869C119.122 417.87 119.104 417.868 119.049 417.855C118.995 417.842 118.927 417.824 118.836 417.8C118.745 417.775 118.649 417.747 118.534 417.714L116.876 423.48C117.084 423.54 117.383 423.627 117.674 423.695C117.932 423.756 118.395 423.856 118.905 423.856V417.856ZM118.819 417.812L118.819 417.811L116.591 423.382L116.591 423.382L118.819 417.812ZM118.534 417.714C118.325 417.654 118.026 417.567 117.735 417.499C117.478 417.438 117.014 417.338 116.505 417.338V423.338C116.376 423.338 116.298 423.325 116.296 423.325C116.287 423.324 116.306 423.326 116.361 423.339C116.414 423.352 116.483 423.369 116.573 423.394C116.664 423.419 116.76 423.447 116.876 423.48L118.534 417.714ZM117.137 417.405C115.987 417.157 114.977 416.908 113.923 416.647L112.483 422.472C113.531 422.731 114.622 423.001 115.872 423.271L117.137 417.405ZM113.923 416.647C112.876 416.388 111.785 416.118 110.535 415.848L109.269 421.714C110.42 421.962 111.43 422.211 112.483 422.472L113.923 416.647ZM110.731 415.898C109.831 415.639 108.93 415.379 108.028 415.119L106.366 420.884C107.267 421.144 108.17 421.405 109.073 421.664L110.731 415.898ZM108.028 415.119C107.129 414.86 106.228 414.6 105.327 414.341L103.669 420.107C104.567 420.365 105.466 420.625 106.366 420.884L108.028 415.119ZM104.498 414.224C104.36 414.224 104.269 414.209 103.826 414.082L102.166 419.848C102.623 419.979 103.434 420.224 104.498 420.224V414.224ZM103.826 414.082C103.37 413.951 102.561 413.706 101.499 413.706V419.706C101.634 419.706 101.723 419.72 102.166 419.848L103.826 414.082ZM102.131 413.774C100.981 413.525 99.9712 413.276 98.9177 413.015L97.4773 418.84C98.5246 419.099 99.6159 419.369 100.866 419.639L102.131 413.774ZM99.0216 413.043L99.0215 413.043L97.3732 418.812L97.3733 418.812L99.0216 413.043ZM98.9175 413.015C97.8702 412.756 96.7789 412.486 95.5289 412.217L94.2635 418.082C95.414 418.33 96.4236 418.579 97.4771 418.84L98.9175 413.015ZM95.7268 412.266C89.1791 410.38 83.118 408.048 77.9341 406.053L75.7786 411.652C80.9413 413.639 87.2325 416.063 94.0656 418.032L95.7268 412.266ZM77.9346 406.053L77.9266 406.05L75.77 411.649L75.7781 411.652L77.9346 406.053ZM77.9261 406.05C77.5339 405.899 77.1463 405.749 76.7646 405.603L74.6128 411.204C74.9923 411.349 75.378 411.498 75.7706 411.649L77.9261 406.05ZM75.6887 408.403C75.6887 405.403 75.69 405.403 75.6912 405.403C75.6917 405.403 75.6929 405.403 75.6938 405.403C75.6954 405.403 75.6971 405.403 75.6988 405.403C75.7022 405.403 75.7055 405.403 75.7089 405.403C75.7155 405.403 75.7222 405.403 75.7288 405.403C75.7421 405.404 75.7552 405.404 75.7684 405.404C75.7946 405.405 75.8211 405.406 75.8478 405.408C75.9005 405.411 75.959 405.417 76.0229 405.426C76.1351 405.442 76.3366 405.48 76.5793 405.585C76.8224 405.69 77.2184 405.911 77.5587 406.352C77.931 406.835 78.0895 407.391 78.0895 407.885H72.0895C72.0895 408.638 72.323 409.388 72.8076 410.017C73.2603 410.604 73.806 410.922 74.1989 411.092C74.5914 411.262 74.9427 411.332 75.1673 411.364C75.2873 411.382 75.3927 411.391 75.4781 411.396C75.5213 411.399 75.5606 411.401 75.5956 411.402C75.6131 411.402 75.6297 411.403 75.6452 411.403C75.6529 411.403 75.6604 411.403 75.6677 411.403C75.6713 411.403 75.6749 411.403 75.6784 411.403C75.6801 411.403 75.6819 411.403 75.6836 411.403C75.6845 411.403 75.6857 411.403 75.6862 411.403C75.6874 411.403 75.6887 411.403 75.6887 408.403ZM76.5886 405.287C75.5118 404.665 74.4519 404.211 73.5682 403.83L71.19 409.338C72.1133 409.737 72.8603 410.063 73.5905 410.484L76.5886 405.287ZM73.5682 403.83C72.6507 403.434 71.9075 403.109 71.1811 402.692L68.1901 407.893C69.2593 408.508 70.3118 408.959 71.19 409.338L73.5682 403.83ZM70.8726 402.537C70.2583 402.273 69.7321 402.044 69.2906 401.825C68.8069 401.586 68.6447 401.463 68.6477 401.466L64.7241 406.005C65.3262 406.525 66.0629 406.922 66.6287 407.202C67.2367 407.503 67.9107 407.794 68.4986 408.048L70.8726 402.537ZM66.6859 400.735C67.009 400.735 67.3704 400.815 67.7092 400.99C67.9756 401.128 68.1538 401.298 68.0452 401.204L64.1287 405.75C64.3656 405.954 65.2344 406.735 66.6859 406.735V400.735ZM68.0453 401.204C67.8048 400.997 66.9361 400.217 65.4838 400.217V406.217C65.1638 406.217 64.8039 406.139 64.4653 405.964C64.1986 405.826 64.0203 405.656 64.1286 405.75L68.0453 401.204ZM66.9609 405.829C85.174 395.525 116.948 386.993 156.155 381.553L155.331 375.61C115.95 381.074 83.2431 389.724 64.0066 400.606L66.9609 405.829ZM157.432 376.102C141.112 364.985 126.996 351.072 115.835 335.091L110.916 338.527C122.5 355.113 137.141 369.54 154.054 381.061L157.432 376.102Z" fill="#78350F" mask="url(#path-1-outside-1_3_20)"/>
<ellipse cx="256.5" cy="238.5" rx="127.5" ry="124.5" fill="#FDE68A"/>
<path d="M217.277 230.351C215.285 227.773 214.465 224.902 214.816 221.738C215.285 218.574 216.808 215.937 219.386 213.828L254.015 186.933C256.594 184.59 259.523 183.418 262.804 183.418C265.969 183.535 268.664 184.707 270.89 186.933C273.117 189.043 274.289 191.68 274.406 194.844V280.976C273.703 288.008 269.836 291.816 262.804 292.402C259.523 292.402 256.652 291.347 254.191 289.238C251.847 287.012 250.676 284.258 250.676 280.976V219.453L233.801 232.461C231.222 234.453 228.351 235.215 225.187 234.746C221.906 234.394 219.269 232.93 217.277 230.351Z" fill="#B45309"/>
<path d="M357.425 334.159C384.577 306.043 399.768 269.479 399.497 231.18C399.522 222.666 398.777 214.181 397.248 206.501L397.269 199.536C397.505 121.364 334.66 60.6744 256.543 63.6377C218.643 65.0758 183.409 80.7313 156.645 108.446C129.882 136.161 115.08 172.323 115.351 209.846C115.344 212.168 115.337 214.489 115.717 216.41C114.532 224.58 113.345 232.751 113.319 241.266C113.204 279.193 127.788 315.011 154.778 341.075C181.771 367.132 218.077 381.232 255.975 379.796C294.259 378.73 330.272 362.272 357.422 334.157L357.425 334.159ZM297.431 97.6854L297.086 84.1569C312.54 88.9877 326.439 96.1988 338.393 106.194L338.362 116.257C326.014 108.21 312.111 101.774 297.431 97.6853L297.431 97.6854ZM188.729 113.033L188.764 101.425C201.55 92.813 215.876 86.4659 230.971 82.4116L230.929 96.3407C216.22 99.9949 201.897 105.57 188.729 113.032L188.729 113.033ZM369.212 144.493C362.278 136.243 354.567 128.022 345.693 121.781L345.719 113.267C355.359 121.803 363.448 132.717 369.211 144.493L369.212 144.493ZM290.133 82.0973L290.091 96.0264C279.656 93.7151 268.447 92.9774 256.844 93.4197C250.656 93.6545 244.468 94.664 238.665 95.2704L238.704 81.3386C244.895 80.3317 251.082 79.3223 257.271 79.087C268.099 78.6761 279.312 79.4115 290.133 82.0965L290.133 82.0973ZM167.83 119.241C172.097 114.823 176.748 110.776 181.4 107.503L181.367 118.339C172.456 124.483 163.54 131.396 155.783 139.429C151.516 143.848 148.02 148.237 144.141 153.029C149.977 140.813 158.133 129.283 167.83 119.241L167.83 119.241ZM135.753 241.186C135.851 208.679 148.319 178.025 171.203 154.327C194.088 130.629 224.29 117.099 256.773 115.866C323.289 113.343 377.266 165.468 377.065 232.032C376.967 264.539 364.5 295.193 341.615 318.891C318.73 342.589 288.529 356.119 256.045 357.352C223.561 358.584 193.435 347.343 170.688 325.377C147.939 303.413 135.656 273.694 135.754 241.188L135.753 241.186Z" fill="#F59E0B"/>
</svg>
